{
  "accessors": [
    {
      "bufferView": 2,
      "componentType": 5126,
      "count": 1467,
      "max": [
        0.22859999537467957,
        0.7620000243186951,
        0.838200032711029
      ],
      "min": [
        -0.22859999537467957,
        0.0,
        -0.8382001519203186
      ],
      "type": "VEC3"
    },
    {
      "bufferView": 2,
      "byteOffset": 17604,
      "componentType": 5126,
      "count": 1467,
      "max": [
        1.0,
        1.0,
        1.0
      ],
      "min": [
        -1.0,
        -1.0,
        -1.0
      ],
      "type": "VEC3"
    },
    {
      "bufferView": 3,
      "componentType": 5126,
      "count": 1467,
      "max": [
        1.0,
        1.0,
        1.0,
        1.0
      ],
      "min": [
        -1.0,
        -1.0,
        -1.0,
        -1.0
      ],
      "type": "VEC4"
    },
    {
      "bufferView": 1,
      "componentType": 5126,
      "count": 1467,
      "max": [
        0.9963666796684265,
        0.996366560459137
      ],
      "min": [
        0.003635958768427372,
        0.003636956214904785
      ],
      "type": "VEC2"
    },
    {
      "bufferView": 1,
      "byteOffset": 11736,
      "componentType": 5126,
      "count": 1467,
      "max": [
        0.9963666796684265,
        0.996366560459137
      ],
      "min": [
        0.003635958768427372,
        0.003636956214904785
      ],
      "type": "VEC2"
    },
    {
      "bufferView": 1,
      "byteOffset": 23472,
      "componentType": 5126,
      "count": 1467,
      "max": [
        0.9963666796684265,
        0.996366560459137
      ],
      "min": [
        0.003635958768427372,
        0.003636956214904785
      ],
      "type": "VEC2"
    },
    {
      "bufferView": 1,
      "byteOffset": 35208,
      "componentType": 5126,
      "count": 1467,
      "max": [
        0.9963666796684265,
        0.996366560459137
      ],
      "min": [
        0.003635958768427372,
        0.003636956214904785
      ],
      "type": "VEC2"
    },
    {
      "bufferView": 0,
      "componentType": 5125,
      "count": 3102,
      "type": "SCALAR"
    },
    {
      "bufferView": 2,
      "byteOffset": 35208,
      "componentType": 5126,
      "count": 1467,
      "max": [
        0.22859999537467957,
        0.7620000243186951,
        0.838200032711029
      ],
      "min": [
        -0.22859999537467957,
        0.0,
        -0.8382001519203186
      ],
      "type": "VEC3"
    },
    {
      "bufferView": 2,
      "byteOffset": 52812,
      "componentType": 5126,
      "count": 1467,
      "max": [
        1.0,
        1.0,
        1.0
      ],
      "min": [
        -1.0,
        -1.0,
        -1.0
      ],
      "type": "VEC3"
    },
    {
      "bufferView": 3,
      "byteOffset": 23472,
      "componentType": 5126,
      "count": 1467,
      "max": [
        1.0,
        1.0,
        1.0,
        1.0
      ],
      "min": [
        -1.0,
        -1.0,
        -1.0,
        -1.0
      ],
      "type": "VEC4"
    },
    {
      "bufferView": 1,
      "byteOffset": 46944,
      "componentType": 5126,
      "count": 1467,
      "max": [
        0.9963666796684265,
        0.996366560459137
      ],
      "min": [
        0.003635958768427372,
        0.003636956214904785
      ],
      "type": "VEC2"
    },
    {
      "bufferView": 1,
      "byteOffset": 58680,
      "componentType": 5126,
      "count": 1467,
      "max": [
        0.9963666796684265,
        0.996366560459137
      ],
      "min": [
        0.003635958768427372,
        0.003636956214904785
      ],
      "type": "VEC2"
    },
    {
      "bufferView": 1,
      "byteOffset": 70416,
      "componentType": 5126,
      "count": 1467,
      "max": [
        0.9963666796684265,
        0.996366560459137
      ],
      "min": [
        0.003635958768427372,
        0.003636956214904785
      ],
      "type": "VEC2"
    },
    {
      "bufferView": 1,
      "byteOffset": 82152,
      "componentType": 5126,
      "count": 1467,
      "max": [
        0.9963666796684265,
        0.996366560459137
      ],
      "min": [
        0.003635958768427372,
        0.003636956214904785
      ],
      "type": "VEC2"
    },
    {
      "bufferView": 0,
      "byteOffset": 12408,
      "componentType": 5125,
      "count": 3102,
      "type": "SCALAR"
    }
  ],
  "asset": {
    "extras": {
      "author": "Caxtor (https://sketchfab.com/caxtor)",
      "license": "CC-BY-4.0 (http://creativecommons.org/licenses/by/4.0/)",
      "source": "https://sketchfab.com/3d-models/old-table-83263d9be3324586b2dab895230bc1d7",
      "title": "Old Table"
    },
    "generator": "Sketchfab-15.27.0",
    "version": "2.0"
  },
  "bufferViews": [
    {
      "buffer": 0,
      "byteLength": 24816,
      "name": "floatBufferViews",
      "target": 34963
    },
    {
      "buffer": 0,
      "byteLength": 93888,
      "byteOffset": 24816,
      "byteStride": 8,
      "name": "floatBufferViews",
      "target": 34962
    },
    {
      "buffer": 0,
      "byteLength": 70416,
      "byteOffset": 118704,
      "byteStride": 12,
      "name": "floatBufferViews",
      "target": 34962
    },
    {
      "buffer": 0,
      "byteLength": 46944,
      "byteOffset": 189120,
      "byteStride": 16,
      "name": "floatBufferViews",
      "target": 34962
    }
  ],
  "buffers": [
    {
      "byteLength": 236064,
      "uri": "scene.bin"
    }
  ],
  "images": [
    {
      "uri": "textures/Old_Table_Wood_baseColor.png"
    },
    {
      "uri": "textures/Old_Table_Wood_metallicRoughness.png"
    },
    {
      "uri": "textures/Old_Table_Wood_normal.png"
    },
    {
      "uri": "textures/Old_Table_Paint_baseColor.png"
    },
    {
      "uri": "textures/Old_Table_Paint_metallicRoughness.png"
    },
    {
      "uri": "textures/Old_Table_Paint_normal.png"
    }
  ],
  "materials": [
    {
      "doubleSided": true,
      "name": "Old_Table_Wood",
      "normalTexture": {
        "index": 2
      },
      "pbrMetallicRoughness": {
        "baseColorTexture": {
          "index": 0
        },
        "metallicFactor": 0.0,
        "metallicRoughnessTexture": {
          "index": 1
        }
      }
    },
    {
      "doubleSided": true,
      "name": "Old_Table_Paint",
      "normalTexture": {
        "index": 5
      },
      "pbrMetallicRoughness": {
        "baseColorTexture": {
          "index": 3
        },
        "metallicFactor": 0.0,
        "metallicRoughnessTexture": {
          "index": 4
        }
      }
    }
  ],
  "meshes": [
    {
      "name": "Object_0",
      "primitives": [
        {
          "attributes": {
            "NORMAL": 1,
            "POSITION": 0,
            "TANGENT": 2,
            "TEXCOORD_0": 3,
            "TEXCOORD_1": 4,
            "TEXCOORD_2": 5,
            "TEXCOORD_3": 6
          },
          "indices": 7,
          "material": 0,
          "mode": 4
        }
      ]
    },
    {
      "name": "Object_1",
      "primitives": [
        {
          "attributes": {
            "NORMAL": 9,
            "POSITION": 8,
            "TANGENT": 10,
            "TEXCOORD_0": 11,
            "TEXCOORD_1": 12,
            "TEXCOORD_2": 13,
            "TEXCOORD_3": 14
          },
          "indices": 15,
          "material": 1,
          "mode": 4
        }
      ]
    }
  ],
  "nodes": [
    {
      "children": [
        1
      ],
      "matrix": [
        2.220446049250313e-16,
        -2.220446049250313e-16,
        1.0,
        0.0,
        1.0,
        4.930380657631324e-32,
        -2.220446049250313e-16,
        0.0,
        0.0,
        1.0,
        2.220446049250313e-16,
        0.0,
        0.0,
        0.0,
        0.0,
        1.0
      ],
      "name": "Sketchfab_model"
    },
    {
      "children": [
        2
      ],
      "name": "root"
    },
    {
      "children": [
        3,
        5
      ],
      "matrix": [
        1.0,
        0.0,
        0.0,
        0.0,
        0.0,
        2.220446049250313e-16,
        1.0,
        0.0,
        0.0,
        -1.0,
        2.220446049250313e-16,
        0.0,
        0.0,
        0.0,
        0.0,
        1.0
      ],
      "name": "GLTF_SceneRootNode"
    },
    {
      "children": [
        4
      ],
      "name": "Old Table  Wood_0"
    },
    {
      "mesh": 0,
      "name": "Object_4"
    },
    {
      "children": [
        6
      ],
      "matrix": [
        1.0,
        0.0,
        0.0,
        0.0,
        0.0,
        1.0,
        0.0,
        0.0,
        0.0,
        0.0,
        1.0,
        0.0,
        0.0,
        0.0,
        -1.8750379085540771,
        1.0
      ],
      "name": "Old Table  Paint_1"
    },
    {
      "mesh": 1,
      "name": "Object_6"
    }
  ],
  "samplers": [
    {
      "magFilter": 9729,
      "minFilter": 9987,
      "wrapS": 10497,
      "wrapT": 10497
    }
  ],
  "scene": 0,
  "scenes": [
    {
      "name": "Sketchfab_Scene",
      "nodes": [
        0
      ]
    }
  ],
  "textures": [
    {
      "sampler": 0,
      "source": 0
    },
    {
      "sampler": 0,
      "source": 1
    },
    {
      "sampler": 0,
      "source": 2
    },
    {
      "sampler": 0,
      "source": 3
    },
    {
      "sampler": 0,
      "source": 4
    },
    {
      "sampler": 0,
      "source": 5
    }
  ]
}
